<svg id="visual" viewBox="0 0 900 600" width="900" height="600" xmlns="http://www.w3.org/2000/svg" xmlns:xlink="http://www.w3.org/1999/xlink" version="1.1"><path d="M0 163L82 145L164 79L245 55L327 73L409 79L491 115L573 157L655 145L736 133L818 61L900 97L900 0L818 0L736 0L655 0L573 0L491 0L409 0L327 0L245 0L164 0L82 0L0 0Z" fill="#00cc8e"></path><path d="M0 205L82 199L164 175L245 145L327 115L409 157L491 169L573 223L655 181L736 229L818 109L900 169L900 95L818 59L736 131L655 143L573 155L491 113L409 77L327 71L245 53L164 77L82 143L0 161Z" fill="#00b98a"></path><path d="M0 391L82 349L164 271L245 445L327 373L409 349L491 337L573 469L655 307L736 439L818 271L900 385L900 167L818 107L736 227L655 179L573 221L491 167L409 155L327 113L245 143L164 173L82 197L0 203Z" fill="#00a784"></path><path d="M0 457L82 439L164 343L245 499L327 439L409 397L491 463L573 517L655 421L736 535L818 367L900 499L900 383L818 269L736 437L655 305L573 467L491 335L409 347L327 371L245 443L164 269L82 347L0 389Z" fill="#00957c"></path><path d="M0 601L82 601L164 601L245 601L327 601L409 601L491 601L573 601L655 601L736 601L818 601L900 601L900 497L818 365L736 533L655 419L573 515L491 461L409 395L327 437L245 497L164 341L82 437L0 455Z" fill="#038373"></path></svg>