<svg id="visual" viewBox="0 0 900 600" width="900" height="600" xmlns="http://www.w3.org/2000/svg" xmlns:xlink="http://www.w3.org/1999/xlink" version="1.1"><rect x="0" y="0" width="900" height="600" fill="#658E9C"></rect><path d="M0 466L13.7 462.2C27.3 458.3 54.7 450.7 82 448.2C109.3 445.7 136.7 448.3 163.8 453.3C191 458.3 218 465.7 245.2 469C272.3 472.3 299.7 471.7 327 472.5C354.3 473.3 381.7 475.7 409 478.7C436.3 481.7 463.7 485.3 491 473.5C518.3 461.7 545.7 434.3 573 423.3C600.3 412.3 627.7 417.7 654.8 426.7C682 435.7 709 448.3 736.2 451C763.3 453.7 790.7 446.3 818 435.7C845.3 425 872.7 411 886.3 404L900 397L900 601L886.3 601C872.7 601 845.3 601 818 601C790.7 601 763.3 601 736.2 601C709 601 682 601 654.8 601C627.7 601 600.3 601 573 601C545.7 601 518.3 601 491 601C463.7 601 436.3 601 409 601C381.7 601 354.3 601 327 601C299.7 601 272.3 601 245.2 601C218 601 191 601 163.8 601C136.7 601 109.3 601 82 601C54.7 601 27.3 601 13.7 601L0 601Z" fill="#F3F3F3" stroke-linecap="round" stroke-linejoin="miter"></path></svg>