<svg id="visual" viewBox="0 0 900 600" width="900" height="600" xmlns="http://www.w3.org/2000/svg" xmlns:xlink="http://www.w3.org/1999/xlink" version="1.1"><rect x="0" y="0" width="900" height="600" fill="#658E9C"></rect><path d="M0 132L13.7 135.8C27.3 139.7 54.7 147.3 82 149.8C109.3 152.3 136.7 149.7 163.8 144.7C191 139.7 218 132.3 245.2 129C272.3 125.7 299.7 126.3 327 125.5C354.3 124.7 381.7 122.3 409 119.3C436.3 116.3 463.7 112.7 491 124.5C518.3 136.3 545.7 163.7 573 174.7C600.3 185.7 627.7 180.3 654.8 171.3C682 162.3 709 149.7 736.2 147C763.3 144.3 790.7 151.7 818 162.3C845.3 173 872.7 187 886.3 194L900 201L900 0L886.3 0C872.7 0 845.3 0 818 0C790.7 0 763.3 0 736.2 0C709 0 682 0 654.8 0C627.7 0 600.3 0 573 0C545.7 0 518.3 0 491 0C463.7 0 436.3 0 409 0C381.7 0 354.3 0 327 0C299.7 0 272.3 0 245.2 0C218 0 191 0 163.8 0C136.7 0 109.3 0 82 0C54.7 0 27.3 0 13.7 0L0 0Z" fill="#41E2BA" stroke-linecap="round" stroke-linejoin="miter"></path></svg>